<svg width="57" height="54" viewBox="0 0 57 54" fill="none" xmlns="http://www.w3.org/2000/svg">
<path d="M23.4182 18H32.7856V14.625C32.7856 10.2758 36.4553 6.75 40.982 6.75C45.5088 6.75 49.1785 10.2758 49.1785 14.625C49.1785 18.9742 45.5088 22.5 40.982 22.5H37.4693V31.5H40.982C45.5088 31.5 49.1785 35.0257 49.1785 39.375C49.1785 43.7243 45.5088 47.25 40.982 47.25C36.4553 47.25 32.7856 43.7243 32.7856 39.375V36H23.4182V39.375C23.4182 43.7243 19.7486 47.25 15.2218 47.25C10.695 47.25 7.02539 43.7243 7.02539 39.375C7.02539 35.0257 10.695 31.5 15.2218 31.5H18.7346V22.5H15.2218C10.695 22.5 7.02539 18.9742 7.02539 14.625C7.02539 10.2758 10.695 6.75 15.2218 6.75C19.7486 6.75 23.4182 10.2758 23.4182 14.625V18ZM18.7346 18V14.625C18.7346 12.761 17.1619 11.25 15.2218 11.25C13.2818 11.25 11.7091 12.761 11.7091 14.625C11.7091 16.489 13.2818 18 15.2218 18H18.7346ZM18.7346 36H15.2218C13.2818 36 11.7091 37.5111 11.7091 39.375C11.7091 41.2389 13.2818 42.75 15.2218 42.75C17.1619 42.75 18.7346 41.2389 18.7346 39.375V36ZM37.4693 18H40.982C42.922 18 44.4948 16.489 44.4948 14.625C44.4948 12.761 42.922 11.25 40.982 11.25C39.042 11.25 37.4693 12.761 37.4693 14.625V18ZM37.4693 36V39.375C37.4693 41.2389 39.042 42.75 40.982 42.75C42.922 42.75 44.4948 41.2389 44.4948 39.375C44.4948 37.5111 42.922 36 40.982 36H37.4693ZM23.4182 22.5V31.5H32.7856V22.5H23.4182Z" fill="white"/>
</svg>
